<?xml version="1.0" standalone="no"?>
<!DOCTYPE svg PUBLIC "-//W3C//DTD SVG 20010904//EN" "http://www.w3.org/TR/2001/REC-SVG-20010904/DTD/svg10.dtd">
<svg version="1.0" xmlns="http://www.w3.org/2000/svg" width="700.000000pt" height="700.000000pt" viewBox="0 0 700.000000 700.000000" preserveAspectRatio="xMidYMid meet">
	<g transform="translate(0.000000,700.000000) scale(0.100000,-0.100000)" fill="#000000" stroke="none">
		<path d="M4005 6982 c-51 -24 -101 -80 -114 -129 -7 -26 -11 -477 -11 -1389
l0 -1352 28 -53 c40 -76 101 -113 185 -112 34 0 350 49 702 107 352 59 847
140 1100 182 985 161 971 159 1009 188 96 73 107 146 53 367 -62 251 -128 428
-246 655 -473 912 -1450 1521 -2486 1550 -162 5 -184 3 -220 -14z" />
		<path d="M2831 6314 c-355 -45 -726 -158 -1050 -320 -356 -177 -613 -365 -896
-655 -491 -503 -789 -1131 -869 -1829 -21 -177 -21 -504 0 -680 47 -410 164
-785 355 -1136 138 -255 198 -309 339 -309 90 0 141 22 215 92 137 131 2077
2014 2187 2123 113 112 128 131 142 179 14 49 16 181 16 1196 0 1269 3 1208
-67 1280 -74 77 -147 88 -372 59z" />
		<path d="M5620 3600 c-327 -59 -764 -137 -970 -174 -206 -37 -395 -74 -420
-82 -59 -18 -113 -63 -148 -122 -23 -41 -27 -58 -27 -127 0 -67 4 -87 25 -122
14 -23 292 -301 625 -624 330 -320 677 -657 771 -750 94 -92 191 -178 215
-191 35 -18 60 -23 124 -23 71 0 86 4 135 31 72 40 140 138 254 369 202 408
299 771 326 1222 11 175 0 459 -20 534 -27 99 -125 170 -234 168 -34 0 -329
-49 -656 -109z" />
		<path d="M3205 3061 c-16 -4 -47 -16 -68 -26 -58 -27 -1964 -1881 -2001 -1946
-23 -40 -30 -68 -34 -124 -10 -158 47 -231 318 -411 462 -306 982 -490 1539
-544 132 -13 454 -13 596 0 425 38 832 153 1205 339 235 118 491 285 606 396
52 50 65 70 79 119 21 70 15 127 -18 192 -32 63 -1970 1945 -2039 1980 -51 26
-136 38 -183 25z" />
	</g>
</svg>
