<svg width="32" height="32" viewBox="0 0 32 32" fill="none" xmlns="http://www.w3.org/2000/svg">
<path fill-rule="evenodd" clip-rule="evenodd" d="M31.9469 10.8542C31.4017 7.7207 29.7319 5.00757 27.3803 3.07837C25.0269 1.14722 21.993 0 18.7223 0V0.00366211C18.1909 0.00366211 17.7601 0.421875 17.7601 0.937744V12.9604C17.7555 13.0305 17.7591 13.1023 17.7714 13.1746C17.8589 13.6843 18.3556 14.0288 18.8808 13.9438L31.1547 11.9312C31.6798 11.8459 32.0345 11.3638 31.9469 10.8542Z" fill="#05386B"/>
<path d="M5.46702 26.6792C4.84705 27.281 4.8971 28.2751 5.5812 28.8074C8.1398 30.7979 11.3958 32 14.9233 32V31.9958H14.9336C18.3325 31.9958 21.7311 30.876 24.4919 28.6357C25.0483 28.1841 25.089 27.3677 24.5762 26.8699L15.7942 18.3452C15.3131 17.8784 14.5334 17.8784 14.0525 18.3452L5.46702 26.6792Z" fill="#05386B"/>
<path d="M29.7814 15.9995C29.7218 15.4478 29.2437 15.0427 28.6939 15.0427C28.6278 15.0427 28.5609 15.0486 28.4932 15.0608L19.5307 16.6719C18.5556 16.8472 18.1828 18.012 18.884 18.6926L25.7188 25.3271C26.2832 25.875 27.2228 25.7622 27.6421 25.1028C28.4419 23.8462 29.049 22.4617 29.4243 20.9888C29.4303 20.9648 29.4361 20.9412 29.4421 20.9172C29.5141 20.6291 29.5775 20.3389 29.6308 20.0469C29.8722 18.7371 29.9303 17.3774 29.7814 15.9995V15.9995Z" fill="#05386B"/>
<path d="M13.5573 16.1738L14.5626 15.198C14.7935 14.9739 14.9233 14.6699 14.9233 14.3528V4.13159C14.9233 3.5415 14.4293 3.06885 13.8322 3.06885C13.8038 3.06885 13.7752 3.07007 13.7462 3.07202C6.05458 3.65479 0 9.89795 0 17.5139C0 20.3003 0.810614 22.9031 2.21529 25.1121C2.63129 25.7664 3.57093 25.8677 4.13104 25.324L13.5573 16.1738Z" fill="#05386B"/>
</svg>
