<svg width="161" height="32" viewBox="0 0 161 32" fill="none" xmlns="http://www.w3.org/2000/svg">
<path d="M45.5918 28H42.2168V2.40625H45.5918V28ZM54.3457 8.98047L54.4512 11.3711C55.9043 9.54297 57.8027 8.62891 60.1465 8.62891C64.166 8.62891 66.1934 10.8965 66.2285 15.4316V28H62.9766V15.4141C62.9648 14.043 62.6484 13.0293 62.0273 12.373C61.418 11.7168 60.4629 11.3887 59.1621 11.3887C58.1074 11.3887 57.1816 11.6699 56.3848 12.2324C55.5879 12.7949 54.9668 13.5332 54.5215 14.4473V28H51.2695V8.98047H54.3457ZM77.4082 23.5879L82.1191 8.98047H85.4414L78.6211 28H76.1426L69.252 8.98047H72.5742L77.4082 23.5879ZM96.2168 28.3516C93.6387 28.3516 91.541 27.5078 89.9238 25.8203C88.3066 24.1211 87.498 21.8535 87.498 19.0176V18.4199C87.498 16.5332 87.8555 14.8516 88.5703 13.375C89.2969 11.8867 90.3047 10.7266 91.5938 9.89453C92.8945 9.05078 94.3008 8.62891 95.8125 8.62891C98.2852 8.62891 100.207 9.44336 101.578 11.0723C102.949 12.7012 103.635 15.0332 103.635 18.0684V19.4219H90.75C90.7969 21.2969 91.3418 22.8145 92.3848 23.9746C93.4395 25.123 94.7754 25.6973 96.3926 25.6973C97.541 25.6973 98.5137 25.4629 99.3105 24.9941C100.107 24.5254 100.805 23.9043 101.402 23.1309L103.389 24.6777C101.795 27.127 99.4043 28.3516 96.2168 28.3516ZM95.8125 11.3008C94.5 11.3008 93.3984 11.7812 92.5078 12.7422C91.6172 13.6914 91.0664 15.0273 90.8555 16.75H100.383V16.5039C100.289 14.8516 99.8438 13.5742 99.0469 12.6719C98.25 11.7578 97.1719 11.3008 95.8125 11.3008ZM110.49 8.98047L110.596 11.3711C112.049 9.54297 113.947 8.62891 116.291 8.62891C120.311 8.62891 122.338 10.8965 122.373 15.4316V28H119.121V15.4141C119.109 14.043 118.793 13.0293 118.172 12.373C117.562 11.7168 116.607 11.3887 115.307 11.3887C114.252 11.3887 113.326 11.6699 112.529 12.2324C111.732 12.7949 111.111 13.5332 110.666 14.4473V28H107.414V8.98047H110.49ZM131.689 4.375V8.98047H135.24V11.4941H131.689V23.2891C131.689 24.0508 131.848 24.625 132.164 25.0117C132.48 25.3867 133.02 25.5742 133.781 25.5742C134.156 25.5742 134.672 25.5039 135.328 25.3633V28C134.473 28.2344 133.641 28.3516 132.832 28.3516C131.379 28.3516 130.283 27.9121 129.545 27.0332C128.807 26.1543 128.438 24.9062 128.438 23.2891V11.4941H124.975V8.98047H128.438V4.375H131.689ZM150.797 28C150.609 27.625 150.457 26.957 150.34 25.9961C148.828 27.5664 147.023 28.3516 144.926 28.3516C143.051 28.3516 141.51 27.8242 140.303 26.7695C139.107 25.7031 138.51 24.3555 138.51 22.7266C138.51 20.7461 139.26 19.2109 140.76 18.1211C142.271 17.0195 144.393 16.4688 147.123 16.4688H150.287V14.9746C150.287 13.8379 149.947 12.9355 149.268 12.2676C148.588 11.5879 147.586 11.248 146.262 11.248C145.102 11.248 144.129 11.541 143.344 12.127C142.559 12.7129 142.166 13.4219 142.166 14.2539H138.896C138.896 13.3047 139.23 12.3906 139.898 11.5117C140.578 10.6211 141.492 9.91797 142.641 9.40234C143.801 8.88672 145.072 8.62891 146.455 8.62891C148.646 8.62891 150.363 9.17969 151.605 10.2812C152.848 11.3711 153.492 12.877 153.539 14.7988V23.5527C153.539 25.2988 153.762 26.6875 154.207 27.7188V28H150.797ZM145.4 25.5215C146.42 25.5215 147.387 25.2578 148.301 24.7305C149.215 24.2031 149.877 23.5176 150.287 22.6738V18.7715H147.738C143.754 18.7715 141.762 19.9375 141.762 22.2695C141.762 23.2891 142.102 24.0859 142.781 24.6602C143.461 25.2344 144.334 25.5215 145.4 25.5215Z" fill="#05386B"/>
<path fill-rule="evenodd" clip-rule="evenodd" d="M31.9469 10.8542C31.4017 7.7207 29.7319 5.00757 27.3803 3.07837C25.0269 1.14722 21.993 0 18.7223 0V0.00366211C18.1909 0.00366211 17.7601 0.421875 17.7601 0.937744V12.9604C17.7555 13.0305 17.7591 13.1023 17.7714 13.1746C17.8589 13.6843 18.3556 14.0288 18.8808 13.9438L31.1547 11.9312C31.6798 11.8459 32.0345 11.3638 31.9469 10.8542Z" fill="#05386B"/>
<path d="M5.46702 26.6792C4.84705 27.281 4.8971 28.2751 5.5812 28.8074C8.1398 30.7979 11.3958 32 14.9233 32V31.9958H14.9336C18.3325 31.9958 21.7311 30.876 24.4919 28.6357C25.0483 28.1841 25.089 27.3677 24.5762 26.8699L15.7942 18.3452C15.3131 17.8784 14.5334 17.8784 14.0525 18.3452L5.46702 26.6792Z" fill="#05386B"/>
<path d="M29.7815 15.9995C29.7219 15.4478 29.2437 15.0427 28.6939 15.0427C28.6278 15.0427 28.5609 15.0486 28.4932 15.0608L19.5307 16.6719C18.5556 16.8472 18.1829 18.012 18.8841 18.6926L25.7188 25.3271C26.2832 25.875 27.2229 25.7622 27.6421 25.1028C28.4419 23.8462 29.0491 22.4617 29.4243 20.9888C29.4304 20.9648 29.4361 20.9412 29.4422 20.9172C29.5141 20.6291 29.5775 20.3389 29.6308 20.0469C29.8723 18.7371 29.9304 17.3774 29.7815 15.9995V15.9995Z" fill="#05386B"/>
<path d="M13.5573 16.1738L14.5626 15.198C14.7935 14.9739 14.9233 14.6699 14.9233 14.3528V4.13159C14.9233 3.5415 14.4293 3.06885 13.8322 3.06885C13.8038 3.06885 13.7752 3.07007 13.7462 3.07202C6.05458 3.65479 0 9.89795 0 17.5139C0 20.3003 0.810614 22.9031 2.21529 25.1121C2.63129 25.7664 3.57093 25.8677 4.13104 25.324L13.5573 16.1738Z" fill="#05386B"/>
</svg>
